<svg xmlns="http://www.w3.org/2000/svg" viewBox="0 0 38.68 9.46"><defs><style>.cls-1{fill:#cc1526;}</style></defs><g id="Layer_2" data-name="Layer 2"><g id="Layer_1-2" data-name="Layer 1"><path class="cls-1" d="M6.43.07,8.27,5.15A10.11,10.11,0,0,1,4.81,7.33a10.53,10.53,0,0,1-3.16.59L0,3a11.52,11.52,0,0,0,3.27-.79A10.94,10.94,0,0,0,6.43.07Z"/><path d="M31.47,7.5H30.09l2.65-6h1.37ZM33.37,0h1.4l-.48,1.1h-1.4ZM30.93,0H32.3L29,7.5H27.64ZM27.44,2.87A.37.37,0,0,0,27,2.46c-.39,0-1,.49-1.61,1.33a4.85,4.85,0,0,0-.29.49c1.27-.08,2.32-.67,2.32-1.41ZM24.58,5.79c0,.42.17.62.56.62A3,3,0,0,0,27,5.33l.48,1A3.61,3.61,0,0,1,25,7.65,1.51,1.51,0,0,1,23.29,6a4.82,4.82,0,0,1,.88-2.53,4.07,4.07,0,0,1,3.09-2.17,1.33,1.33,0,0,1,1.46,1.4c0,1.5-1.57,2.55-4.06,2.64a1.81,1.81,0,0,0-.08.43Zm-2-2.73c0-.3-.14-.47-.51-.47a2.34,2.34,0,0,0-1.53,1.13,4,4,0,0,0-.94,2.17.45.45,0,0,0,.49.49c.5,0,1.23-.56,1.88-1.47L22.52,6a3.5,3.5,0,0,1-2.65,1.62A1.5,1.5,0,0,1,18.3,6a4.93,4.93,0,0,1,1.2-2.93,3.86,3.86,0,0,1,2.81-1.77,1.35,1.35,0,0,1,1.5,1.45,2.78,2.78,0,0,1-.08.66L22.5,3.6a1.77,1.77,0,0,0,.1-.54ZM19.06,1.37a1.36,1.36,0,0,1,.69.21L19,2.86a1.13,1.13,0,0,0-.37,0c-.77,0-1.54.82-2.16,2.25L15.42,7.5H14l2.65-6H18l-.5,1.13C18.06,1.79,18.43,1.37,19.06,1.37ZM10.84,6a.45.45,0,0,0,.5.51c.55,0,1.18-.6,1.63-1.42.06-.11.13-.24.18-.35C11.45,4.85,10.84,5.38,10.84,6ZM13.63,3.1c0-.36-.13-.54-.46-.54a3.34,3.34,0,0,0-1.85,1.1L11,2.5a3.89,3.89,0,0,1,2.44-1.18A1.4,1.4,0,0,1,14.9,2.86a5.93,5.93,0,0,1-.8,2.57c-.68,1.2-1.65,2.22-2.89,2.22A1.5,1.5,0,0,1,9.57,6.11c0-1.46,1.34-2.27,4-2.37a2.17,2.17,0,0,0,.1-.64Zm6.15,4.82.36,1a1.9,1.9,0,0,1-.68.42,2.06,2.06,0,0,1-.62.12l-.32-1a2.61,2.61,0,0,0,.64-.16,2.16,2.16,0,0,0,.62-.41ZM33.92,7.5H32.55L35.84,0h1.37L35.75,3.33l2.59-2.1.34,1.16L36.34,4.22l.57,3.28H35.65L35.2,4.56Z"/></g></g></svg>