<svg xmlns="http://www.w3.org/2000/svg" viewBox="0 0 38.46 10.46"><defs><style>.cls-1{fill-rule:evenodd;}</style></defs><g id="Layer_2" data-name="Layer 2"><g id="Layer_1-2" data-name="Layer 1"><path class="cls-1" d="M30.5,0h1.41V1.37h-1.4V0Zm-.63,10.24V9.1c.6,0,.63-.22.63-.76V2.1H32V8.7a3.5,3.5,0,0,1-.08.74,1.28,1.28,0,0,1-1.21.79ZM27.63,4.49a1.18,1.18,0,0,0-1.08-1.26c-.89,0-1.21.69-1.21,1.52V8H23.85V2.22h1.4V2.9A1.78,1.78,0,0,1,27.07,2a2.4,2.4,0,0,1,1.28.41c.73.44.68,1.42.68,2.17V8h-1.4V4.49Zm-6.41,0a1.52,1.52,0,0,0-.29-.85,1.12,1.12,0,0,0-.86-.4,1.09,1.09,0,0,0-.83.4,1.75,1.75,0,0,0-.33.85Zm15.71,0a1.52,1.52,0,0,0-.29-.85,1.1,1.1,0,0,0-1.7,0,1.74,1.74,0,0,0-.32.85ZM22.68,6.28A2.28,2.28,0,0,1,20,8.13,2.58,2.58,0,0,1,18,7.2a3.57,3.57,0,0,1-.65-2.1V5a4.29,4.29,0,0,1,.24-1.43,2.42,2.42,0,0,1,.85-1.14,1.88,1.88,0,0,1,.64-.34,3,3,0,0,1,.73-.1h.42a2,2,0,0,1,.43,0l.42.08a2,2,0,0,1,1,.62,2.76,2.76,0,0,1,.6,1,5.07,5.07,0,0,1,.09.54c0,.17,0,.35,0,.53v.22c0,.08,0,.31,0,.39H18.88A1.35,1.35,0,0,0,20,7a1.14,1.14,0,0,0,1.22-.7Zm15.7,0a2.28,2.28,0,0,1-2.65,1.85,2.59,2.59,0,0,1-2.06-.93A3.57,3.57,0,0,1,33,5.1V5a4.29,4.29,0,0,1,.24-1.43,2.47,2.47,0,0,1,.84-1.14,2.18,2.18,0,0,1,.66-.34,2.91,2.91,0,0,1,.72-.1h.43a2.15,2.15,0,0,1,.43,0l.41.08a2.08,2.08,0,0,1,1,.62,2.62,2.62,0,0,1,.59,1,5.07,5.07,0,0,1,.09.54,4.58,4.58,0,0,1,0,.53v.22c0,.08,0,.31,0,.39H34.58A1.35,1.35,0,0,0,35.75,7,1.13,1.13,0,0,0,37,6.28ZM13.6,2.16H15v.92A2,2,0,0,1,16.93,2V3.53a2.16,2.16,0,0,0-1.43.36,1.57,1.57,0,0,0-.44,1.2V8H13.6ZM8.13,5.1a2.22,2.22,0,0,0,.33,1.21,1.39,1.39,0,0,0,1.16.6,1.35,1.35,0,0,0,1.13-.6,2.29,2.29,0,0,0,.33-1.21V4.94a2.29,2.29,0,0,0-.31-1,1.32,1.32,0,0,0-1-.61H9.72l-.06,0H9.54a1.3,1.3,0,0,0-1.07.58A2.22,2.22,0,0,0,8.13,5.1Zm-1.4.05A3.3,3.3,0,0,1,7.42,3a2.41,2.41,0,0,1,1.94-.83h.75l.34.05a2.07,2.07,0,0,1,1.55,1,3.85,3.85,0,0,1,.5,1.85v.08a3.38,3.38,0,0,1-.66,2.13,2.39,2.39,0,0,1-2,.85H9.4a2.43,2.43,0,0,1-2-.86,3.33,3.33,0,0,1-.67-2.13Zm-5.09.37A2.35,2.35,0,0,0,2,6.4a1,1,0,0,0,.71.47,1,1,0,0,0,.29,0,1,1,0,0,0,.78-.47,2.18,2.18,0,0,0,.31-1,4,4,0,0,0,0-.85,2.67,2.67,0,0,0-.27-.78,1,1,0,0,0-.64-.49,1,1,0,0,0-.46,0,1.14,1.14,0,0,0-.76.54,2.43,2.43,0,0,0-.29.92,3.06,3.06,0,0,0,0,.74ZM4.25,7.61a2.83,2.83,0,0,1-2,.41A2.05,2.05,0,0,1,.6,7.12a3.56,3.56,0,0,1-.6-2A3.53,3.53,0,0,1,.61,3a2.06,2.06,0,0,1,1.83-.9c1.28,0,1.38.32,1.74.92V2.31h1.4l0,5a4.42,4.42,0,0,1-.38,2.27,1.76,1.76,0,0,1-.84.64,3.45,3.45,0,0,1-1,.22h-1A2.83,2.83,0,0,1,1,10.07,1.5,1.5,0,0,1,.31,8.71H1.89c.06.63.42.72,1,.72C4.15,9.44,4.25,8.55,4.25,7.61Z"/></g></g></svg>