<svg xmlns="http://www.w3.org/2000/svg" viewBox="0 0 38.05 6.42"><defs><style>.cls-1{fill:#00999c;}</style></defs><g id="Layer_2" data-name="Layer 2"><g id="Layer_1-2" data-name="Layer 1"><path class="cls-1" d="M0,6.33C.16,4.22.31,2.11.48,0H2a.38.38,0,0,1,.35.18.5.5,0,0,1,0,.32L2.24,2.21H5C5.05,1.47,5.1.74,5.16,0H7.08c-.17,2.1-.32,4.21-.48,6.32H4.68l.21-2.8H2.13c-.06.94-.14,1.87-.2,2.8ZM7.72,1.2c0-.4,0-.8.09-1.2H9.34a.3.3,0,0,1,.31.29c0,.31,0,.61-.05.91Zm3,.74a4.45,4.45,0,0,1,1.77-.32A12.62,12.62,0,0,1,15,1.84l-.09,1a11.24,11.24,0,0,0-2.16-.23,2.4,2.4,0,0,0-.6.07c-.06,0-.14,0-.16.12s.05.18.12.23a3.23,3.23,0,0,0,.59.29,9.33,9.33,0,0,1,1.89,1,1.15,1.15,0,0,1,.41.54,1,1,0,0,1-.25,1,2.08,2.08,0,0,1-1,.46,7.32,7.32,0,0,1-1.75.1,20.19,20.19,0,0,1-2-.15c0-.35,0-.71.06-1a1,1,0,0,0,.25.06,14.22,14.22,0,0,0,2.07.19,1.7,1.7,0,0,0,.55-.07.16.16,0,0,0,.11-.23.81.81,0,0,0-.3-.21c-.48-.21-1-.39-1.45-.61a2.59,2.59,0,0,1-1-.65,1,1,0,0,1-.2-.95,1.23,1.23,0,0,1,.72-.74Zm18.11-.26a11,11,0,0,1,3.24.16L32,2.8a9.09,9.09,0,0,0-2.44-.21.7.7,0,0,0-.45.13c-.07.07,0,.18,0,.23a1.77,1.77,0,0,0,.47.25c.53.24,1.08.46,1.6.73a2.33,2.33,0,0,1,.74.58,1,1,0,0,1-.07,1.22,1.76,1.76,0,0,1-.93.49,8.21,8.21,0,0,1-2.32.11c-.54,0-1.08-.06-1.61-.13,0-.35,0-.69.06-1a12.38,12.38,0,0,0,2.58.22c.13,0,.32,0,.4-.14S30,5,29.86,4.94c-.61-.28-1.25-.49-1.85-.8a1.86,1.86,0,0,1-.8-.72,1,1,0,0,1,.22-1.19,2.48,2.48,0,0,1,1.42-.55Zm-11.43.06a3.44,3.44,0,0,1,2.32.2,2,2,0,0,1,1,1.11,2.8,2.8,0,0,1,.09,1.35H17a1,1,0,0,0,.62.83,2.9,2.9,0,0,0,1.4.2,9.32,9.32,0,0,0,1.66-.22l-.15,1a8,8,0,0,1-2.62.23,3.56,3.56,0,0,1-2-.66,2,2,0,0,1-.65-1.52,2.39,2.39,0,0,1,.68-1.67,2.82,2.82,0,0,1,1.48-.81m.26,1a1.17,1.17,0,0,0-.57.81c.75,0,1.5,0,2.25,0a.9.9,0,0,0-.47-.85,1.39,1.39,0,0,0-1.21,0Zm16-.64a3.82,3.82,0,0,1,1.88-.43,2.77,2.77,0,0,1,2,.83A2.23,2.23,0,0,1,38,4.39s-.11,0-.16,0H34.17a1,1,0,0,0,.58.81,2.84,2.84,0,0,0,1.41.22,9.42,9.42,0,0,0,1.68-.22c-.05.32-.1.64-.14,1a7.23,7.23,0,0,1-1.85.25,6.27,6.27,0,0,1-1.78-.18,2.31,2.31,0,0,1-1.3-.8,2.17,2.17,0,0,1-.33-1.7,2.57,2.57,0,0,1,1.25-1.68m1.22.59a1.16,1.16,0,0,0-.67.87H36.5a1,1,0,0,0-.44-.83A1.44,1.44,0,0,0,34.91,2.65ZM21.5,1.9a26.55,26.55,0,0,1,2.82-.21,7.08,7.08,0,0,1,1.38.11,1.21,1.21,0,0,1,.77.47,1.64,1.64,0,0,1,.22,1c-.07,1-.12,2-.19,3H24.75c.05-1,.12-2,.18-3.08a.54.54,0,0,0-.17-.48,1,1,0,0,0-.6-.12,7.75,7.75,0,0,0-1,.07c-.07,1.2-.15,2.4-.21,3.61-.59,0-1.18,0-1.76,0C21.31,4.87,21.41,3.38,21.5,1.9ZM7.33,6.33c.11-1.53.22-3.07.34-4.6H9.55c-.11,1.53-.23,3.06-.34,4.6Z"/></g></g></svg>