<svg xmlns="http://www.w3.org/2000/svg" viewBox="0 0 37.8 8.73"><defs><style>.cls-1{fill:#4aab6f;}.cls-1,.cls-2,.cls-3,.cls-4{fill-rule:evenodd;}.cls-2{fill:#2b5da6;}.cls-3{fill:#00acec;}.cls-4{fill:#fff;}</style></defs><g id="Layer_2" data-name="Layer 2"><g id="Layer_1-2" data-name="Layer 1"><path class="cls-1" d="M25.52,1.76a1.45,1.45,0,0,0-1.25.77A3,3,0,0,0,23.91,4c0,1.69.47,2.53,1.39,2.53h.52L24.71,5.32h1.84l.4.33a5.67,5.67,0,0,0,.15-1.58,2.81,2.81,0,0,0-.44-1.65,1.3,1.3,0,0,0-1.14-.66Zm4,2.28a4.89,4.89,0,0,1-.25,1.54A4.46,4.46,0,0,1,28.53,7l1.1,1.25H27.58l-.52-.47a4,4,0,0,1-1.57.4,4,4,0,0,1-2.94-1.07,4.16,4.16,0,0,1-1.1-3,3.77,3.77,0,0,1,1.1-2.94A4.3,4.3,0,0,1,25.49,0a4,4,0,0,1,3,1.17A4,4,0,0,1,29.52,4ZM20.75.26V7.89H18.58V4L17.23,7.89H15.46L14.14,3.56V7.89H12V.26h3.2l1.17,4.11L17.59.26ZM11,.26V7.89H8.67V.26ZM5.67,8.19a3,3,0,0,0-.74-.46A3.46,3.46,0,1,0,.33,6.06a3.39,3.39,0,0,0,3.14,2,2.67,2.67,0,0,1,1.82.67l.38-.54Zm.6-3.6A2.81,2.81,0,1,0,3.47,7.4,2.8,2.8,0,0,0,6.27,4.59ZM2.81,7.14V6.49h.33V4.76l-1.36-1a1.88,1.88,0,0,0,.74,2.5l-.33.56a2.52,2.52,0,0,1-.93-3.47,2.71,2.71,0,0,1,.38-.51l1.5,1.13V2.7H2.81V2H4.12V2.7H3.79V3.94l1.5-1.13a2.55,2.55,0,0,1,0,3.6h0a2.6,2.6,0,0,1-.51.38l-.33-.56a1.89,1.89,0,0,0,.74-2.5l-1.36,1V6.49h.33v.65Z"/><path class="cls-2" d="M31.3,1.26h6.5V7.75H31.3Z"/><path class="cls-3" d="M31.3,1.26h6.5V3H31.3Z"/><path class="cls-4" d="M33.61,2.7c0-.44.38-.65.81-.65a1.26,1.26,0,0,1,.74.26l-.22.37a.88.88,0,0,0-.56-.21c-.18,0-.29.07-.29.19s.09.14.25.19a2.73,2.73,0,0,1,.52.19.56.56,0,0,1,.33.54c0,.41-.31.68-.83.68a1.31,1.31,0,0,1-.8-.29l.23-.39a.91.91,0,0,0,.58.24c.23,0,.34-.07.34-.2s-.09-.18-.24-.23A3.05,3.05,0,0,1,34,3.22a.53.53,0,0,1-.35-.52ZM36.36,2A1.13,1.13,0,0,1,37.5,3.15a1.08,1.08,0,0,1-.26.7l.28.36-.4.23-.23-.31a1.07,1.07,0,0,1-.53.13,1.11,1.11,0,1,1,0-2.22Zm0,1.78a.67.67,0,1,0,0-1.34.67.67,0,0,0-.67.67h0a.67.67,0,0,0,.67.67Zm-4.77-.67a1.07,1.07,0,0,1,1.09-1.1,1.12,1.12,0,0,1,.79.29h0l-.26.36-.16-.12a.77.77,0,0,0-.36-.09.62.62,0,0,0-.64.64.64.64,0,0,0,.64.68.7.7,0,0,0,.56-.25l.27.37a1.6,1.6,0,0,1-.25.18,1.34,1.34,0,0,1-.61.14,1.06,1.06,0,0,1-1.09-1.11Z"/></g></g></svg>