<svg xmlns="http://www.w3.org/2000/svg" viewBox="0 0 44 20.61"><defs><style>.cls-1{fill:#33348e;}.cls-1,.cls-2{fill-rule:evenodd;}.cls-2{fill:#cc2229;}</style></defs><g id="Layer_2" data-name="Layer 2"><g id="Layer_1-2" data-name="Layer 1"><path class="cls-1" d="M25.94,1.61l3.67,3.63-.49.48L25.94,2.57Zm0,7.29V8l.53.51L26,9l0,0Zm0-3.17,1.62,1.6L28,6.85,25.94,4.77v1ZM24.33,0l1.61,1.61v1L24.23.85V.11l.1-.11Zm1.61,4.77v1L24.23,4v-1Zm0,3.18v1L24.23,7.2v-1L25.94,8Zm-1.71,2.42v-1l.67.67-.48.48-.19-.19Zm0-9.52L23.85.49l.38-.38Zm0,2.22V4L22.29,2.1l.48-.49Zm0,3.17v1l-.68-.67L24,6.05l.21.19Zm0,3.17v1L22,8.15l.47-.49,1.77,1.75Zm-4.45,1V9.71l.37.37Zm0-3v-1l1.94,1.92L21.24,9Zm0-3.18V3.36l.68.67L20,4.51Zm0-3.15V.2L22,2.42l-.47.48Zm0-1v1L19.1.49,19.58,0l.2.2Zm0,3.16v.95l-1.72-1.7V1.66Zm0,3.18v1l-1.72-1.7v-1l1.72,1.72Zm0,3.17v.74l-.11.11L18.06,9V8Zm-1.72-8v1l-.53-.51L18,1.61l0,0Zm0,3.16v1L16,3.71l.47-.48,1.62,1.59Zm0,3.18L14.88,4.83l-.48.49L18.06,9V8Z"/><path class="cls-2" d="M21.59,3.62,24,6.05l-.47.48-2-2Zm0,4.13v-1l.87.87L22,8.15l-.4-.4Zm0-1.63,1.22,1.22.48-.49-1.7-1.69v1Zm0-3.17,2.78,2.77.48-.48L22,2.42l-.43.44V3Zm-.39.28.39.39v1l-.86-.86Zm.39-.37V3l0-.05Zm0,2.3L20.46,4,20,4.51l1.61,1.61Zm0,1.63v1L19.16,5.32l.47-.49,2,2Z"/><path class="cls-1" d="M4.06,13.85l.08-1.11a4.34,4.34,0,0,0-1.85-.37c-1,0-2.29.57-2.29,1.81,0,2.09,2.86,1.53,2.86,2.56s-1.32,1-2.69.35l-.1,1.22A5.81,5.81,0,0,0,2,18.74a2.17,2.17,0,0,0,2.38-2c0-2.28-2.86-1.61-2.86-2.66,0-.85,1.52-.66,2.54-.23Zm-3,5.82L2,18.74l.93.93L2,20.61l-.94-.94Zm12.78-5.82.07-1.11a4.27,4.27,0,0,0-1.84-.37c-1.06,0-2.29.57-2.29,1.81,0,2.09,2.85,1.53,2.85,2.56s-1.31,1-2.68.35l-.11,1.22a5.93,5.93,0,0,0,1.94.43,2.17,2.17,0,0,0,2.38-2c0-2.28-2.86-1.61-2.86-2.66,0-.85,1.52-.66,2.54-.23Zm-3,5.82,1-.93.93.93-.93.94-1-.94ZM6,11.53l.93-.94.95.94-.95.94L6,11.53ZM7.7,18.64V12.47H6.18v6.17Zm8.17-6.17h4.28v1.14H17.39v1.33H20v1.14H17.39v1.43h2.76v1.13H15.87V12.47Zm5.81,3.09a3.19,3.19,0,0,0,3.17,3.19,3.78,3.78,0,0,0,1.94-.44V17.12a2.23,2.23,0,0,1-1.46.48,2,2,0,1,1,0-4.08,2.23,2.23,0,0,1,1.46.48V12.81a3.89,3.89,0,0,0-1.94-.44,3.19,3.19,0,0,0-3.17,3.19ZM32,16.37l-.81-2.29V12.56h1l2.38,6.18H32.88l-.44-1.23H31.22V16.37Zm-.81-2.29-.82,2.29h.82v1.14H30l-.44,1.23h-1.7l2.38-6.18h1v1.52Zm9.64,4.66,1.62-4.56v4.56H44V12.56H41.53l-1.43,4-1.42-4H36.21v6.18h1.52V14.18l1.61,4.56Z"/></g></g></svg>