<svg xmlns="http://www.w3.org/2000/svg" viewBox="0 0 43.59 17.93"><defs><style>.cls-1{fill:#751327;}</style></defs><g id="Layer_2" data-name="Layer 2"><g id="Layer_1-2" data-name="Layer 1"><path class="cls-1" d="M36.21,3.77C35,3,34.8,2.73,34.8,2.32a.79.79,0,0,1,.81-.77h.07a2,2,0,0,1,1.4.77V.3A3.4,3.4,0,0,0,35.75,0a2.43,2.43,0,0,0-2.63,2.47v0c0,1.22.76,1.91,2.1,2.69,1,.59,1.18.89,1.18,1.27a.89.89,0,0,1-.89.9h-.08a2.53,2.53,0,0,1-1.67-.91l-1,1.31A3.77,3.77,0,0,0,35,8.87l-.79,1.2,1.37.53.63-1.78a2.45,2.45,0,0,0,1.91-2.43v0c0-1.14-.64-1.83-1.87-2.59M14.3,0a4.46,4.46,0,1,0,4.46,4.46h0A4.46,4.46,0,0,0,14.31,0h0m0,7.25a2.79,2.79,0,1,1,2.79-2.79A2.79,2.79,0,0,1,14.3,7.25h0M4.81.1V1.67H6.27V8.82H7.94V1.67H9.41V.1ZM24.89,1.66,24.46.1H20.35V8.82H22V5.52h2.44V4H22V1.66ZM29.59.1H27.68L25.26,8.82H26.9L27.37,7h2.46l.47,1.82H32ZM27.75,5.52l.87-3.3.1.45.74,2.87ZM37.3,17.93l.13-.38a.51.51,0,0,0,.38-.51,1.24,1.24,0,0,0-.38-.81c-.24-.31-.31-.42-.31-.58a.28.28,0,0,1,.26-.3h0a.63.63,0,0,1,.35.13v-.24a.58.58,0,0,0-.38-.1.5.5,0,0,0-.5.5h0c0,.24.1.38.39.77s.3.44.3.61a.28.28,0,0,1-.26.3h0a.84.84,0,0,1-.41-.14v.24a1.05,1.05,0,0,0,.38.12l-.17.27Zm-1.11-.38h.27v-.34h-.27ZM35,15.16h.24l.52,2.39h-.23l-.12-.61H34.9l-.13.61h-.21Zm.36,1.57-.24-1.19-.24,1.19Zm-2,.82h.22V15.16h-.23ZM32,17.46a.75.75,0,0,0,.41.12.5.5,0,0,0,.52-.49.08.08,0,0,0,0,0,1.24,1.24,0,0,0-.38-.81c-.24-.3-.31-.41-.31-.58a.28.28,0,0,1,.27-.29h0a.63.63,0,0,1,.35.13v-.24a.65.65,0,0,0-.36-.1.5.5,0,0,0-.51.49h0c0,.24.09.38.38.77s.31.44.31.61a.28.28,0,0,1-.26.3h0a.84.84,0,0,1-.41-.14Zm-1.07-2.31h.23l.49,2.4h-.22l-.12-.62h-.56l-.12.62h-.22Zm.35,1.57L31,15.53l-.24,1.19Zm-2.17.83h.22v-.72l.16-.35.47,1.07h.24l-.56-1.33.52-1.06h-.25l-.58,1.25V15.16h-.22Zm-.77-2.8h.23V15h-.23Zm0,.42h.22v2.38h-.22Zm-1.5,0h.33a.64.64,0,0,1,.7.59.24.24,0,0,1,0,.12.67.67,0,0,1-.38.65l.42,1h-.24l-.38-.93h-.22v.93h-.23Zm.33,1.26c.29,0,.48-.18.48-.53a.46.46,0,0,0-.38-.51H27v1Zm-1.79-1.26h.32a.6.6,0,0,1,.67.52v.08a.53.53,0,0,1-.4.56.56.56,0,0,1,.44.57c0,.38-.3.63-.77.63h-.27Zm.3,1.08a.42.42,0,0,0,.47-.35.34.34,0,0,0,0-.1.38.38,0,0,0-.34-.42h-.21v.88Zm0,1.1c.31,0,.51-.15.51-.44a.44.44,0,0,0-.41-.46h-.17v.9Zm-1.45-2.19h.24l.5,2.39h-.23l-.12-.61H24l-.11.61h-.22Zm.36,1.57-.25-1.19-.24,1.19Zm-1.89.82h.21V16.47h.54v-.2h-.54v-.91h.58v-.2h-.8Zm-1.7,0h.77v-.2h-.54V15.17H21Zm-.76-2.8h.23V15h-.23Zm0,.42h.22v2.38h-.22Zm-1.47,0h.33a.61.61,0,0,1,.67.53v.07a.53.53,0,0,1-.41.56.54.54,0,0,1,.44.57c0,.38-.29.63-.76.63h-.27Zm.33,1.07a.42.42,0,0,0,.47-.36v-.09a.38.38,0,0,0-.32-.43H19v.88Zm0,1.1c.31,0,.51-.16.51-.44a.44.44,0,0,0-.39-.47H19v.9Zm-1.91-.95v-.08c0-.76.24-1.18.58-1.18s.56.4.56,1.18v.1c0,.78-.24,1.18-.58,1.18s-.58-.38-.58-1.18m.94,0v-.08c0-.67-.15-1-.36-1s-.36.31-.36,1v.08c0,.67.16,1,.36,1s.36-.3.36-1m-2.67,1.14h.21V15.64L16,16.91l.45-1.27v1.91h.21V15.16h-.24L16,16.37l-.38-1.21H15.4ZM13.8,16.41v-.08c0-.76.24-1.18.58-1.18s.58.4.58,1.18v.08c0,.78-.24,1.18-.58,1.18s-.58-.38-.58-1.18m.94,0v-.08c0-.67-.15-1-.38-1s-.36.31-.36,1v.08c0,.67.16,1,.36,1s.38-.3.38-1M13,17.55h.22V15.38h.37v-.21h-1v.21h.36Zm-1.79-1.14v-.08c0-.76.25-1.18.59-1.18s.58.4.58,1.18v.08c0,.78-.24,1.18-.58,1.18s-.59-.38-.59-1.18m.95,0v-.08c0-.67-.16-1-.36-1s-.36.31-.36,1v.08c0,.67.16,1,.36,1s.36-.3.36-1M9.23,17.55h.22v-.72l.16-.35.44,1.07h.25l-.57-1.33.51-1.06H10l-.57,1.25V15.16H9.2ZM7.74,15.17h.33a.65.65,0,0,1,.7.59v.13a.66.66,0,0,1-.38.65l.39,1H8.53l-.38-.93H7.93v.93H7.71Zm.33,1.26c.29,0,.48-.18.48-.53a.46.46,0,0,0-.38-.51H8v1Zm-1.9.49V15.16h.21v1.76c0,.3.13.44.32.44s.32-.14.32-.44V15.16h.22v1.75c0,.42-.22.66-.54.66s-.53-.24-.53-.66m.22-2.16h.23V15H6.39Zm.38,0H7V15H6.75Zm-1.6,2.8h.22V15.38h.38v-.21h-1v.21h.36Zm33-.34h.28v.33h-.28ZM21.79,12.38c-3.52,0-7,0-10.53.07-3.75,0-7.48.11-11.21.27l0,0,.05.06c3.73.16,7.46.23,11.21.27q5.25.06,10.53.06c3.53,0,7,0,10.55-.06,3.74,0,7.47-.11,11.2-.27l.05-.06-.05,0c-3.73-.16-7.46-.24-11.2-.27-3.51,0-7-.07-10.55-.07"/><path class="cls-1" d="M21.79,12.38c-3.52,0-7,0-10.53.07-3.75,0-7.48.11-11.21.27l0,0,.05.06c3.73.16,7.46.23,11.21.27q5.25.06,10.53.06c3.53,0,7,0,10.55-.06,3.74,0,7.47-.11,11.2-.27l.05-.06-.05,0c-3.73-.16-7.46-.24-11.2-.27-3.51,0-7-.07-10.55-.07"/></g></g></svg>