<svg xmlns="http://www.w3.org/2000/svg" viewBox="0 0 38.52 10.48"><defs><style>.cls-1{fill:#231f20;}.cls-2{fill:#1378c7;}</style></defs><g id="Layer_2" data-name="Layer 2"><g id="Layer_1-2" data-name="Layer 1"><path class="cls-1" d="M11.72,8.38c-.05-.25-.26-.31-.48-.31-.5,0-.68.44-.68.82s.19.81.77.82a1.4,1.4,0,0,0,.41-.06V9.07h-.46V8.83H12v1a2.45,2.45,0,0,1-.7.12,1,1,0,0,1-.75-.24,1.14,1.14,0,0,1-.3-.83,1.31,1.31,0,0,1,.18-.63.86.86,0,0,1,.82-.43c.35,0,.73.15.75.55m1.41.69c0-.24-.1-.43-.36-.43s-.35.19-.35.43Zm-.71.18c0,.25.08.51.35.51a.3.3,0,0,0,.35-.29h.28a.57.57,0,0,1-.63.49c-.46,0-.64-.33-.64-.75s.21-.76.66-.76a.6.6,0,0,1,.63.67v.13m.67-.55h0a.52.52,0,0,1,1,.23v1h-.27V9c0-.24-.09-.36-.32-.36a.37.37,0,0,0-.26.1s-.11.1-.11.38v.77h-.27V8.49h.26m2,.73c-.17,0-.39.07-.39.28a.26.26,0,0,0,.29.26c.31,0,.37-.27.37-.54ZM16.7,9c0-.25,0-.4-.31-.4a.24.24,0,0,0-.26.23h-.28c0-.31.25-.42.53-.42s.58.09.58.48v.68c0,.07,0,.18,0,.3H16.8s-.08,0-.08,0a1.15,1.15,0,0,1,0-.19h0a.46.46,0,0,1-.44.26c-.25,0-.5-.13-.5-.41s.36-.51.69-.51m1.95-.55h.27V9.91h-.26V9.7h0a.52.52,0,0,1-.48.26.47.47,0,0,1-.47-.52V8.49h.27v.84c0,.25.06.43.31.43a.35.35,0,0,0,.32-.2,1.07,1.07,0,0,0,0-.34m.76.69h.33V9.57h-.33Zm1.89-1.16h.46c.32,0,.39-.16.39-.32s-.07-.3-.39-.32h-.46Zm0,.24v.92h-.28v-2h.73c.34,0,.7.11.7.51a.48.48,0,0,1-.39.49h0c.25.06.28.19.31.42a4.13,4.13,0,0,0,.13.61H22c0-.12-.06-.25-.08-.37a.87.87,0,0,0-.11-.46A.44.44,0,0,0,21.45,9m1.23.92V8.49H23V9.91Zm0-2H23v.29h-.32m1.6.79c0-.18-.1-.31-.29-.31s-.36.23-.36.56.1.56.36.56a.29.29,0,0,0,.3-.32h.27A.54.54,0,0,1,24,10c-.46,0-.64-.33-.64-.75s.21-.76.66-.76a.51.51,0,0,1,.54.5m.37,1v-2h.27v.81h0a.52.52,0,0,1,.46-.23.44.44,0,0,1,.49.5v1h-.27V9.07c0-.25-.06-.41-.31-.41a.37.37,0,0,0-.33.19.71.71,0,0,0,0,.33v.73m1.48-1.42v-.3l.27-.09v.39h.33v.2h-.33V9.6a.15.15,0,0,0,.17.15l.15,0v.21l-.19,0-.18,0a.29.29,0,0,1-.16-.09c0-.07-.06-.08-.06-.27v-.9h-.24v-.2m1.18,1.43V8.49h.27V9.91Zm0-2h.32v.29h-.32M29,9.69c.29,0,.4-.25.4-.52s-.11-.53-.4-.53-.4.3-.4.53S28.64,9.69,29,9.69Zm.4-1.2h.28a2.26,2.26,0,0,0,0,.26v1c0,.52-.23.73-.75.73-.31,0-.53-.13-.53-.46h.29c0,.19.13.26.33.26.38,0,.38-.31.39-.63h0a.52.52,0,0,1-.47.24c-.43,0-.6-.31-.6-.71a.65.65,0,0,1,.65-.73.46.46,0,0,1,.38.19s.05.08.05.06m.74,1.21h.33V9.57H30.1Zm-20-7.11h2.45v.5h-.9V5.82H11V3.3h-.9m4.38-.92v-.5h.43v.5Zm-.72,0v-.5h.43v.5Zm1.88.42V4.69a1.16,1.16,0,0,1-1.31,1.19,1.16,1.16,0,0,1-1.31-1.19V2.8h.65V4.44c0,.51,0,1,.66,1S15,5,15,4.44V2.8m1.12,0h.7l.79,2.38h0l.78-2.38h.65L18,5.82h-.7M20,4.1h.69c.47,0,.57-.23.57-.47s-.1-.45-.57-.47H20Zm0,.36V5.82h-.42v-3H20.7c.51,0,1,.16,1,.76a.73.73,0,0,1-.56.73h0c.36.09.41.28.45.62a5.44,5.44,0,0,0,.19.91h-.44a5,5,0,0,1-.11-.56,1.23,1.23,0,0,0-.18-.66.57.57,0,0,0-.45-.14m1.79,1.36v-3h.39V4h0a.73.73,0,0,1,.67-.34.66.66,0,0,1,.72.74V5.82h-.39V4.58c0-.37-.1-.61-.47-.62a.58.58,0,0,0-.48.3,1,1,0,0,0-.07.48V5.82m3.43-1.25c0-.35-.16-.62-.54-.62a.56.56,0,0,0-.53.62Zm-1.07.28c0,.36.13.75.53.75a.44.44,0,0,0,.51-.43h.42a.82.82,0,0,1-.93.71c-.68,0-.94-.47-.94-1.09s.31-1.13,1-1.13a.88.88,0,0,1,.93,1v.2m.51-1.51h.47V2.91h-.47Zm0,2.48h.4V3.72h-.4ZM28.68,4h0a.75.75,0,0,1,.64-.37.72.72,0,0,1,.8.71V5.82h-.4V4.5c0-.35-.15-.54-.48-.54a.56.56,0,0,0-.39.16c-.06.06-.17.15-.17.56V5.82H28.3V3.72h.38m2.11,2.1h.4v-3h-.4Zm1.93-1c-.24,0-.56.1-.56.41a.37.37,0,0,0,.41.39c.47,0,.55-.41.55-.8Zm.4-.28c0-.36,0-.57-.44-.57a.36.36,0,0,0-.4.33h-.42c0-.46.39-.62.8-.62s.86.13.86.71v1c0,.09,0,.27,0,.44h-.27s-.1,0-.11,0a2.64,2.64,0,0,0,0-.28h0a.67.67,0,0,1-.65.37c-.36,0-.73-.18-.73-.59,0-.59.52-.77,1-.77M34.54,4h0a.75.75,0,0,1,.64-.37.72.72,0,0,1,.8.71V5.83h-.4V4.51c0-.35-.15-.54-.48-.54a.56.56,0,0,0-.39.16c-.06.06-.17.15-.17.56V5.83h-.39V3.73h.38m3,1.89c.48,0,.6-.45.6-.84S38,4,37.51,4s-.59.43-.59.83S37.07,5.62,37.51,5.62Zm.59-2.81h.4V5.46c0,.13,0,.25,0,.37h-.4l0-.31v0h0a.74.74,0,0,1-.72.4c-.62,0-.87-.58-.87-1.12s.29-1.11.94-1.11a.68.68,0,0,1,.65.35h0"/><path class="cls-2" d="M8.05,6.93l-.5-.87a9.11,9.11,0,0,0-1.47-.12,8,8,0,0,0-2,.25,7.93,7.93,0,0,1-2,.26,5.85,5.85,0,0,1-.73,0L4.05,1.65,5.71,4.52a8.43,8.43,0,0,0-1.66.25A8.14,8.14,0,0,1,2.85,5l-.5.87a8.72,8.72,0,0,0,1.7-.25,7.89,7.89,0,0,1,3.13-.18L6.65,4.5,5.29,2.14,4.05,0,0,7a8,8,0,0,0,2,.26,7.93,7.93,0,0,0,2-.26,8.49,8.49,0,0,1,2-.26A8.47,8.47,0,0,1,8.1,7"/></g></g></svg>